<?xml version="1.0" standalone="no"?>
<!DOCTYPE svg PUBLIC "-//W3C//DTD SVG 20010904//EN"
 "http://www.w3.org/TR/2001/REC-SVG-20010904/DTD/svg10.dtd">
<svg version="1.0" xmlns="http://www.w3.org/2000/svg"
 width="200.000000pt" height="200.000000pt" viewBox="0 0 200.000000 200.000000"
 preserveAspectRatio="xMidYMid meet">
<metadata>
Created by potrace 1.11, written by Peter Selinger 2001-2013
</metadata>
<g transform="translate(0.000000,200.000000) scale(0.100000,-0.100000)"
fill="#000000" stroke="none">
<path d="M845 1885 c-349 -64 -626 -321 -716 -663 -29 -108 -33 -289 -9 -402
66 -319 305 -583 615 -680 98 -30 142 -35 290 -34 110 1 144 5 218 28 299 90
527 312 616 601 33 106 36 129 35 275 0 108 -5 151 -22 214 -97 343 -364 593
-707 661 -63 13 -252 13 -320 0z m125 -54 c5 -1 8 -201 3 -201 -1 0 -27 11
-58 24 -33 15 -57 21 -61 15 -3 -6 -10 -4 -17 4 -10 13 -31 7 -144 -42 -73
-31 -135 -60 -138 -63 -4 -3 -6 -136 -6 -296 1 -181 -3 -292 -9 -294 -5 -2
-37 -1 -70 0 l-60 4 0 180 0 179 -27 -3 -28 -3 0 -175 c0 -96 -4 -181 -8 -187
-5 -7 -16 -13 -25 -13 -9 0 -46 -16 -81 -35 -36 -19 -67 -32 -70 -30 -7 8 -6
182 2 233 30 197 144 392 309 529 50 41 159 102 232 128 71 26 207 54 236 49
8 -1 17 -3 20 -3z m-50 -249 l55 -27 0 -393 0 -392 -25 0 c-14 0 -43 9 -65 19
l-40 18 1 394 c1 217 2 397 3 402 2 11 11 8 71 -21z m-130 -354 c0 -355 -1
-370 -18 -355 -9 9 -51 34 -92 55 l-75 39 0 277 0 277 85 39 c47 21 88 39 93
39 4 1 7 -166 7 -371z m-269 -352 c69 -6 146 -44 217 -104 80 -67 147 -99 217
-101 18 -1 20 -8 21 -71 0 -46 -4 -70 -12 -70 -9 0 -98 70 -114 91 -13 16
-115 60 -167 73 -120 27 -242 4 -347 -68 l-64 -44 -26 58 c-14 31 -32 76 -40
98 l-14 40 41 30 c54 38 107 60 165 68 26 3 49 8 50 9 2 2 9 2 15 0 7 -2 33
-6 58 -9z m148 -272 c51 -8 120 -46 171 -94 25 -22 63 -50 85 -62 22 -11 42
-24 45 -29 3 -4 5 -63 5 -131 l0 -123 -59 3 c-81 4 -218 46 -306 94 -88 47
-193 130 -246 195 l-38 46 34 28 c46 39 110 68 173 77 51 8 67 8 136 -4z"/>
</g>
</svg>
